<svg width="300" height="145" viewBox="0 0 300 145" fill="none" xmlns="http://www.w3.org/2000/svg">
<g filter="url(#filter0_d_2222_163)">
<mask id="path-1-inside-1_2222_163" fill="white">
<path fill-rule="evenodd" clip-rule="evenodd" d="M201.968 100L275 57.5L201.968 15L208.061 41.2283C191.276 43.3414 152.07 47.8662 124.519 47.8113C89.4312 47.7412 35 40.1662 35 40.1662C35 40.1662 87.6809 67.6267 124.519 74.2424C151.425 79.0743 190.702 76.5262 207.764 75.052L201.968 100Z"/>
</mask>
<path fill-rule="evenodd" clip-rule="evenodd" d="M201.968 100L275 57.5L201.968 15L208.061 41.2283C191.276 43.3414 152.07 47.8662 124.519 47.8113C89.4312 47.7412 35 40.1662 35 40.1662C35 40.1662 87.6809 67.6267 124.519 74.2424C151.425 79.0743 190.702 76.5262 207.764 75.052L201.968 100Z" fill="url(#paint0_linear_2222_163)"/>
<path d="M275 57.5L276.509 60.0929L280.965 57.5L276.509 54.9071L275 57.5ZM201.968 100L199.046 99.3211L197.475 106.086L203.477 102.593L201.968 100ZM201.968 15L203.477 12.4071L197.475 8.9139L199.046 15.6789L201.968 15ZM208.061 41.2283L208.436 44.2048L211.736 43.7893L210.984 40.5494L208.061 41.2283ZM124.519 47.8113L124.525 44.8113L124.525 44.8113L124.519 47.8113ZM35 40.1662L35.4135 37.1948L33.6133 42.8264L35 40.1662ZM124.519 74.2424L123.989 77.1952L124.519 74.2424ZM207.764 75.052L210.686 75.7308L211.621 71.7075L207.506 72.0631L207.764 75.052ZM273.491 54.9071L200.459 97.4071L203.477 102.593L276.509 60.0929L273.491 54.9071ZM200.459 17.5929L273.491 60.0929L276.509 54.9071L203.477 12.4071L200.459 17.5929ZM210.984 40.5494L204.891 14.3211L199.046 15.6789L205.139 41.9071L210.984 40.5494ZM124.513 50.8113C152.28 50.8667 191.664 46.3162 208.436 44.2048L207.687 38.2518C190.888 40.3665 151.86 44.8658 124.525 44.8113L124.513 50.8113ZM35 40.1662C34.5865 43.1375 34.5868 43.1376 34.5874 43.1377C34.5878 43.1377 34.5886 43.1378 34.5895 43.1379C34.5913 43.1382 34.594 43.1386 34.5974 43.1391C34.6044 43.14 34.6146 43.1414 34.6281 43.1433C34.6551 43.147 34.6951 43.1526 34.7478 43.1598C34.8533 43.1744 35.0097 43.1958 35.2148 43.2238C35.6249 43.2797 36.2298 43.3615 37.0115 43.4656C38.5747 43.6737 40.8451 43.9708 43.6785 44.3274C49.3446 45.0405 57.2653 45.992 66.2862 46.9458C84.299 48.8504 106.807 50.7759 124.513 50.8113L124.525 44.8113C107.144 44.7766 84.892 42.8796 66.9171 40.9791C57.9442 40.0304 50.064 39.0837 44.4278 38.3743C41.6099 38.0197 39.3538 37.7245 37.8033 37.518C37.028 37.4148 36.4293 37.3338 36.025 37.2787C35.8228 37.2512 35.6693 37.2301 35.5666 37.216C35.5153 37.2089 35.4767 37.2036 35.4511 37.2C35.4383 37.1982 35.4287 37.1969 35.4224 37.196C35.4193 37.1956 35.417 37.1953 35.4155 37.1951C35.4148 37.195 35.4143 37.1949 35.4139 37.1949C35.4136 37.1948 35.4135 37.1948 35 40.1662ZM125.05 71.2896C106.99 68.0463 84.8749 59.6463 67.1367 51.9701C58.2981 48.1453 50.6024 44.5251 45.1174 41.8616C42.3756 40.5302 40.1879 39.4386 38.6879 38.6811C37.938 38.3024 37.3601 38.0073 36.971 37.8074C36.7764 37.7075 36.629 37.6315 36.531 37.5807C36.4819 37.5553 36.4452 37.5363 36.4211 37.5238C36.409 37.5175 36.4001 37.5129 36.3944 37.5099C36.3915 37.5084 36.3894 37.5073 36.3881 37.5066C36.3875 37.5063 36.3871 37.5061 36.3868 37.506C36.3867 37.5059 36.3867 37.5059 35 40.1662C33.6133 42.8264 33.6137 42.8267 33.6144 42.827C33.6149 42.8273 33.6157 42.8277 33.6167 42.8282C33.6186 42.8292 33.6213 42.8306 33.6249 42.8325C33.6319 42.8361 33.6422 42.8415 33.6556 42.8484C33.6824 42.8623 33.7218 42.8828 33.7735 42.9096C33.8771 42.9631 34.03 43.0421 34.2303 43.1449C34.6308 43.3506 35.2207 43.6519 35.9832 44.0369C37.5081 44.807 39.7239 45.9125 42.4965 47.2589C48.0405 49.951 55.8174 53.6094 64.7538 57.4767C82.5657 65.1847 105.21 73.8228 123.989 77.1952L125.05 71.2896ZM207.506 72.0631C190.412 73.5401 151.511 76.0417 125.05 71.2896L123.989 77.1952C151.339 82.1068 190.992 79.5123 208.022 78.0408L207.506 72.0631ZM204.891 100.679L210.686 75.7308L204.842 74.3731L199.046 99.3211L204.891 100.679Z" fill="url(#paint1_linear_2222_163)" mask="url(#path-1-inside-1_2222_163)"/>
</g>
<defs>
<filter id="filter0_d_2222_163" x="0" y="0" width="300" height="145" filterUnits="userSpaceOnUse" color-interpolation-filters="sRGB">
<feFlood flood-opacity="0" result="BackgroundImageFix"/>
<feColorMatrix in="SourceAlpha" type="matrix" values="0 0 0 0 0 0 0 0 0 0 0 0 0 0 0 0 0 0 127 0" result="hardAlpha"/>
<feOffset dx="-5" dy="15"/>
<feGaussianBlur stdDeviation="15"/>
<feComposite in2="hardAlpha" operator="out"/>
<feColorMatrix type="matrix" values="0 0 0 0 0.0436806 0 0 0 0 0.086261 0 0 0 0 0.141667 0 0 0 0.25 0"/>
<feBlend mode="normal" in2="BackgroundImageFix" result="effect1_dropShadow_2222_163"/>
<feBlend mode="normal" in="SourceGraphic" in2="effect1_dropShadow_2222_163" result="shape"/>
</filter>
<linearGradient id="paint0_linear_2222_163" x1="275" y1="57.5" x2="35" y2="57.5" gradientUnits="userSpaceOnUse">
<stop stop-color="#DE491C"/>
<stop offset="1" stop-color="#BB2E0B"/>
</linearGradient>
<linearGradient id="paint1_linear_2222_163" x1="35" y1="57.5" x2="275" y2="57.5" gradientUnits="userSpaceOnUse">
<stop stop-color="#6D240D"/>
<stop offset="1" stop-color="#B72D09"/>
</linearGradient>
</defs>
</svg>
