<svg width="250" height="250" viewBox="0 0 250 250" fill="none" xmlns="http://www.w3.org/2000/svg">
<path fill-rule="evenodd" clip-rule="evenodd" d="M150.178 101.519L197.252 66.8149L224.54 95.2002L225.103 139.711L210.099 112.929L150.178 101.519Z" fill="#0E121B"/>
<path fill-rule="evenodd" clip-rule="evenodd" d="M163.213 43.145L173.528 72.9448L190.97 60.4025L185.343 49.6519L163.213 43.145Z" fill="#0543A6"/>
<path fill-rule="evenodd" clip-rule="evenodd" d="M4.5481 150.933L23.9592 97.2749L50.3095 94.7288L121.859 106.422L57.5301 107.082L33.993 116.23L4.5481 150.933Z" fill="#0543A6"/>
<path fill-rule="evenodd" clip-rule="evenodd" d="M56.6861 209.873L35.4933 157.346L44.7769 129.149L64.0004 117.644L127.579 113.778L84.8181 127.169L64.0942 161.59L56.6861 209.873Z" fill="#0E121B"/>
<path fill-rule="evenodd" clip-rule="evenodd" d="M109.293 230.148L83.9742 171.963L93.6329 137.354L149.334 119.625L119.889 143.012L111.356 181.582L109.293 230.148Z" fill="#0543A6"/>
<path fill-rule="evenodd" clip-rule="evenodd" d="M166.964 226.47L137.144 193.559L131.986 169.888L134.518 145.37L165.182 121.605L158.243 142.635L157.493 171.492L160.493 194.973L166.964 226.47Z" fill="#0E121B"/>
<path fill-rule="evenodd" clip-rule="evenodd" d="M151.866 38.901L166.307 77.2824L142.301 56.2528L116.232 56.63L133.205 73.6046L162.65 81.5261L137.894 99.4437L21.1459 80.2058L78.4414 57.3845L47.2149 31.6397L104.979 38.4295L99.3529 19.8518L151.866 38.901ZM87.6313 66.2492L84.443 71.2473L78.0664 69.927L83.0364 74.8308L79.2855 80.9605L84.7243 77.4713L89.3192 82.4693L88.1002 76.151L93.8203 73.9821L88.569 72.1903L87.6313 66.2492Z" fill="#0E121B"/>
<path fill-rule="evenodd" clip-rule="evenodd" d="M169.777 133.865L167.339 163.381L182.342 193.275L231.573 193.558L245.452 194.03L204.66 174.321L169.777 133.865Z" fill="#0543A6"/>
</svg>
