<svg width="15" height="15" viewBox="0 0 15 15" fill="none" xmlns="http://www.w3.org/2000/svg">
<g clip-path="url(#clip0_235_314)">
<path fill-rule="evenodd" clip-rule="evenodd" d="M1.20138 2.3597L5.71182 6.87209C6.69556 7.85393 8.30362 7.85478 9.28818 6.87209L13.7986 2.3597C13.8093 2.34909 13.8175 2.33627 13.8226 2.32215C13.8278 2.30802 13.8298 2.29293 13.8285 2.27795C13.8271 2.26297 13.8225 2.24846 13.815 2.23546C13.8074 2.22246 13.7971 2.21128 13.7847 2.20272C13.3247 1.88188 12.7649 1.69167 12.162 1.69167H2.83801C2.23504 1.69167 1.67532 1.88191 1.21527 2.20272C1.20291 2.21128 1.19259 2.22246 1.18503 2.23546C1.17747 2.24846 1.17286 2.26297 1.17154 2.27795C1.17021 2.29293 1.1722 2.30802 1.17736 2.32215C1.18251 2.33627 1.19072 2.34909 1.20138 2.3597ZM-0.00396638 4.53362C-0.00433362 4.07513 0.10709 3.62347 0.320653 3.21776C0.328109 3.20346 0.338834 3.19112 0.351957 3.18174C0.36508 3.17236 0.38023 3.16621 0.396177 3.16379C0.412123 3.16137 0.428416 3.16274 0.443732 3.1678C0.459047 3.17286 0.472952 3.18147 0.484316 3.19291L4.93765 7.64625C6.34788 9.05853 8.65129 9.05935 10.0624 7.64625L14.5157 3.19291C14.5271 3.18147 14.541 3.17286 14.5563 3.1678C14.5716 3.16274 14.5879 3.16137 14.6038 3.16379C14.6198 3.16621 14.6349 3.17236 14.6481 3.18174C14.6612 3.19112 14.6719 3.20346 14.6794 3.21776C14.8929 3.62348 15.0043 4.07514 15.004 4.53362V10.4663C15.004 12.0346 13.7283 13.3083 12.162 13.3083H2.83801C1.27175 13.3083 -0.00396638 12.0346 -0.00396638 10.4663V4.53362Z" fill="#1FABE8"/>
</g>
<defs>
<clipPath id="clip0_235_314">
<rect width="15" height="15" fill="white"/>
</clipPath>
</defs>
</svg>
