<svg width="15" height="15" viewBox="0 0 15 15" fill="none" xmlns="http://www.w3.org/2000/svg">
<g clip-path="url(#clip0_235_321)">
<path d="M11.3981 1.39777C10.6909 0.818674 9.86392 0.403755 8.9769 0.182942C8.08988 -0.0378709 7.1649 -0.0590726 6.26869 0.120866C5.11636 0.357118 4.05622 0.919634 3.21457 1.74141C2.37291 2.56318 1.78522 3.60957 1.52149 4.75593C1.25776 5.90229 1.32912 7.1003 1.72706 8.20724C2.125 9.31419 2.83275 10.2834 3.76601 10.9995C4.83153 11.7793 5.73874 12.755 6.43913 13.8744L6.91635 14.6679C6.97696 14.7687 7.06262 14.8521 7.16499 14.91C7.26737 14.9679 7.38299 14.9984 7.50061 14.9984C7.61822 14.9984 7.73384 14.9679 7.83622 14.91C7.93859 14.8521 8.02425 14.7687 8.08486 14.6679L8.54231 13.9058C9.15221 12.8336 9.98381 11.9039 10.9816 11.1788C11.764 10.6405 12.4105 9.92775 12.8703 9.09681C13.3301 8.26587 13.5905 7.33945 13.6309 6.39065C13.6714 5.44185 13.4908 4.49662 13.1035 3.62956C12.7161 2.76249 12.1325 1.9973 11.3988 1.39437L11.3981 1.39777ZM7.49992 8.86357C6.96058 8.86357 6.43334 8.70363 5.9849 8.40399C5.53645 8.10434 5.18692 7.67845 4.98052 7.18016C4.77412 6.68187 4.72012 6.13356 4.82534 5.60458C4.93056 5.0756 5.19028 4.58969 5.57166 4.20832C5.95303 3.82694 6.43893 3.56722 6.96792 3.462C7.4969 3.35678 8.0452 3.41078 8.54349 3.61718C9.04179 3.82358 9.46768 4.17311 9.76733 4.62156C10.067 5.07001 10.2269 5.59724 10.2269 6.13659C10.2269 6.85983 9.9396 7.55344 9.42819 8.06485C8.91678 8.57626 8.22316 8.86357 7.49992 8.86357Z" fill="#1FABE8"/>
</g>
<defs>
<clipPath id="clip0_235_321">
<rect width="15" height="15" fill="white"/>
</clipPath>
</defs>
</svg>
