<svg width="50" height="50" viewBox="0 0 50 50" fill="none" xmlns="http://www.w3.org/2000/svg">
<g clip-path="url(#clip0_252_243)">
<path fill-rule="evenodd" clip-rule="evenodd" d="M25 50C38.8071 50 50 38.8071 50 25C50 11.1929 38.8071 0 25 0C11.1929 0 0 11.1929 0 25C0 38.8071 11.1929 50 25 50ZM22 33.6603L34 26.7321C35.3333 25.9623 35.3333 24.0378 34 23.268L22 16.3397C20.6667 15.5699 19 16.5322 19 18.0718V31.9282C19 33.4678 20.6667 34.4301 22 33.6603Z" fill="white"/>
<path d="M34 23.268C35.3333 24.0378 35.3333 25.9623 34 26.7321L22 33.6603C20.6667 34.4301 19 33.4678 19 31.9282L19 18.0718C19 16.5322 20.6667 15.57 22 16.3398L34 23.268Z" fill="#06B664"/>
</g>
<defs>
<clipPath id="clip0_252_243">
<rect width="50" height="50" fill="white"/>
</clipPath>
</defs>
</svg>
