<svg width="26" height="26" viewBox="0 0 26 26" fill="none" xmlns="http://www.w3.org/2000/svg">
<path d="M22.605 2.96868C19.3465 4.31808 5.37484 10.1054 1.51436 11.6828C-1.07472 12.6932 0.440824 13.6404 0.440824 13.6404C0.440824 13.6404 2.65082 14.398 4.54518 14.9664C6.43954 15.5347 7.4499 14.9032 7.4499 14.9032L16.3533 8.90422C19.5105 6.7574 18.7529 8.5254 17.9952 9.28304C16.3533 10.9249 13.6382 13.5138 11.365 15.5977C10.3546 16.4817 10.8598 17.2396 11.3018 17.6184C12.9437 19.0076 17.4269 21.8491 17.6796 22.0386C19.0137 22.983 21.6376 24.3425 22.0367 21.4703L23.6154 11.5565C24.1206 8.20976 24.6258 5.1155 24.6889 4.2315C24.8782 2.08468 22.605 2.96868 22.605 2.96868Z" fill="#1FABE8"/>
</svg>
