<svg width="26" height="26" viewBox="0 0 26 26" fill="none" xmlns="http://www.w3.org/2000/svg">
<path d="M22.6051 2.96869C19.3465 4.31809 5.37491 10.1054 1.51442 11.6829C-1.07466 12.6932 0.440885 13.6404 0.440885 13.6404C0.440885 13.6404 2.65089 14.398 4.54525 14.9664C6.43961 15.5348 7.44997 14.9032 7.44997 14.9032L16.3534 8.90423C19.5106 6.75741 18.7529 8.52541 17.9953 9.28305C16.3534 10.925 13.6382 13.5138 11.365 15.5977C10.3547 16.4817 10.8599 17.2396 11.3019 17.6184C12.9438 19.0076 17.4269 21.8491 17.6797 22.0387C19.0137 22.983 21.6376 24.3425 22.0367 21.4703L23.6155 11.5565C24.1206 8.20977 24.6258 5.11551 24.689 4.23151C24.8783 2.08469 22.6051 2.96869 22.6051 2.96869Z" fill="white"/>
</svg>
